<?xml version="1.0" encoding="utf-8"?>
<!-- Generator: Adobe Illustrator 24.0.1, SVG Export Plug-In . SVG Version: 6.00 Build 0)  -->
<svg version="1.1" id="Layer_1" xmlns="http://www.w3.org/2000/svg" xmlns:xlink="http://www.w3.org/1999/xlink" x="0px" y="0px"
	 viewBox="0 0 1383.89 448" style="enable-background:new 0 0 1383.89 448;" xml:space="preserve">
<style type="text/css">
	.st0{fill:#37BFE6;}
	.st1{fill:#247F99;}
	.st2{display:none;}
	.st3{display:inline;fill:#FFFFFF;stroke:#000000;stroke-miterlimit:10;}
	.st4{fill:#185465;}
	.st5{fill:none;stroke:#185465;stroke-width:15.9905;stroke-linecap:round;stroke-linejoin:round;stroke-miterlimit:10;}
	.st6{fill:#F8931F;}
	.st7{fill:#77460E;}
	.st8{fill:none;stroke:#77460E;stroke-width:15.9905;stroke-linecap:round;stroke-miterlimit:10;}
	.st9{fill:#F2411F;}
	.st10{fill:#FCE62D;}
</style>
<g>
	<g>
		<g>
			<g>
				<path d="M1164.32,381.97c-1.65,0-3.03-0.57-4.13-1.73c-1.1-1.15-1.65-2.5-1.65-4.05c0-1.6,0.55-2.96,1.65-4.09
					c1.1-1.13,2.47-1.69,4.13-1.69c1.55,0,2.89,0.56,4.01,1.69s1.69,2.49,1.69,4.09c0,1.55-0.56,2.9-1.69,4.05
					C1167.21,381.4,1165.87,381.97,1164.32,381.97z"/>
				<path d="M1190.87,382.27c-3.95,0-7.19-0.7-9.71-2.1c-2.53-1.4-4.38-3.3-5.55-5.7c-1.17-2.4-1.76-5.1-1.76-8.1v-5.1
					c0-3,0.59-5.7,1.76-8.1c1.17-2.4,3.01-4.3,5.51-5.7c2.5-1.4,5.7-2.1,9.6-2.1c2.45,0,4.63,0.29,6.53,0.86
					c1.9,0.58,3.4,1.34,4.5,2.29c1.1,0.95,1.65,1.98,1.65,3.08c0,0.7-0.19,1.5-0.56,2.4c-0.38,0.9-0.9,1.68-1.58,2.33
					c-0.67,0.65-1.46,0.98-2.36,0.98c-0.6,0-1.19-0.15-1.76-0.45c-0.58-0.3-1.29-0.6-2.14-0.9c-0.85-0.3-1.95-0.45-3.3-0.45
					c-2.25,0-3.85,0.5-4.8,1.5c-0.95,1-1.43,2.43-1.43,4.28v5.1c0,1.85,0.47,3.28,1.43,4.28c0.95,1,2.57,1.5,4.88,1.5
					c1.35,0,2.42-0.17,3.22-0.53c0.8-0.35,1.49-0.69,2.06-1.01c0.57-0.33,1.19-0.49,1.84-0.49c1.05,0,1.95,0.3,2.7,0.9
					s1.31,1.34,1.69,2.21s0.56,1.69,0.56,2.44c0,1.1-0.58,2.16-1.72,3.19c-1.15,1.03-2.7,1.85-4.65,2.47
					C1195.52,381.96,1193.32,382.27,1190.87,382.27z"/>
				<path d="M1223.95,382.27c-3.05,0-5.86-0.74-8.44-2.21c-2.58-1.47-4.65-3.42-6.22-5.85c-1.58-2.42-2.36-5.04-2.36-7.84v-5.25
					c0-2.8,0.76-5.4,2.29-7.8c1.52-2.4,3.59-4.32,6.19-5.77c2.6-1.45,5.45-2.18,8.55-2.18c3.05,0,5.88,0.71,8.48,2.14
					c2.6,1.42,4.69,3.33,6.26,5.7c1.58,2.38,2.36,5.01,2.36,7.91v5.25c0,2.75-0.79,5.34-2.36,7.76c-1.57,2.43-3.66,4.39-6.26,5.89
					C1229.82,381.52,1227,382.27,1223.95,382.27z M1223.95,372.15c1,0,1.91-0.27,2.74-0.83c0.83-0.55,1.49-1.26,1.99-2.14
					c0.5-0.87,0.75-1.81,0.75-2.81v-5.25c0-0.95-0.25-1.85-0.75-2.7c-0.5-0.85-1.16-1.55-1.99-2.1c-0.82-0.55-1.74-0.83-2.74-0.83
					c-1,0-1.91,0.28-2.74,0.83c-0.83,0.55-1.48,1.25-1.95,2.1c-0.48,0.85-0.71,1.75-0.71,2.7v5.25c0,1,0.24,1.94,0.71,2.81
					c0.47,0.88,1.13,1.59,1.95,2.14C1222.04,371.87,1222.95,372.15,1223.95,372.15z"/>
				<path d="M1252.22,381.52c-1.7,0-3.09-0.38-4.16-1.13s-1.61-1.58-1.61-2.47v-28.58c0-1.05,0.54-1.9,1.61-2.55
					c1.08-0.65,2.46-0.98,4.16-0.98c1.4,0,2.6,0.33,3.6,0.98c1,0.65,1.5,1.5,1.5,2.55v1.72c0.85-1.45,2.1-2.76,3.75-3.94
					c1.65-1.17,3.7-1.76,6.15-1.76c2.05,0,3.85,0.7,5.4,2.1c1.55,1.4,2.7,3.2,3.45,5.4c1.3-2.55,2.96-4.44,4.99-5.66
					c2.03-1.22,4.11-1.84,6.26-1.84c2.35,0,4.56,0.61,6.64,1.84c2.07,1.23,3.76,3.01,5.06,5.36c1.3,2.35,1.95,5.2,1.95,8.55v16.8
					c0,0.9-0.58,1.72-1.73,2.47c-1.15,0.75-2.53,1.13-4.13,1.13c-1.55,0-2.9-0.38-4.05-1.13c-1.15-0.75-1.72-1.58-1.72-2.47v-16.8
					c0-1.25-0.24-2.3-0.71-3.15c-0.48-0.85-1.1-1.49-1.88-1.91c-0.78-0.42-1.59-0.64-2.44-0.64c-0.8,0-1.56,0.21-2.29,0.64
					c-0.73,0.43-1.33,1.05-1.8,1.88c-0.48,0.83-0.71,1.89-0.71,3.19V378c0,1.25-0.61,2.15-1.84,2.7c-1.23,0.55-2.56,0.83-4.01,0.83
					c-1.35,0-2.65-0.27-3.9-0.83c-1.25-0.55-1.88-1.45-1.88-2.7v-16.8c0-1.25-0.25-2.3-0.75-3.15c-0.5-0.85-1.14-1.49-1.91-1.91
					c-0.78-0.42-1.59-0.64-2.44-0.64c-0.8,0-1.56,0.2-2.29,0.6c-0.73,0.4-1.31,1.01-1.76,1.84c-0.45,0.83-0.67,1.89-0.67,3.19v16.8
					c0,0.9-0.58,1.72-1.72,2.47C1255.2,381.15,1253.82,381.52,1252.22,381.52z"/>
			</g>
		</g>
		<g>
			<g>
				<path class="st0" d="M492.88,328.07c-2.81,0-5.39-0.58-7.76-1.74c-2.37-1.16-3.55-2.9-3.55-5.22v-92.22
					c0-2.42,1.18-4.16,3.55-5.22c2.37-1.06,4.95-1.6,7.76-1.6c2.8,0,5.39,0.53,7.76,1.6c2.37,1.06,3.55,2.8,3.55,5.22v35.53h28.85
					v-35.53c0-2.42,1.18-4.16,3.55-5.22c2.37-1.06,4.95-1.6,7.76-1.6c2.8,0,5.39,0.53,7.76,1.6c2.37,1.06,3.55,2.8,3.55,5.22v92.22
					c0,2.32-1.18,4.06-3.55,5.22c-2.37,1.16-4.96,1.74-7.76,1.74c-2.81,0-5.39-0.58-7.76-1.74c-2.37-1.16-3.55-2.9-3.55-5.22v-39.29
					h-28.85v39.29c0,2.32-1.19,4.06-3.55,5.22C498.27,327.49,495.68,328.07,492.88,328.07z"/>
				<path class="st0" d="M584.66,329.52c-5.03,0-9.38-1.57-13.05-4.71c-3.67-3.14-5.51-8-5.51-14.57c0-5.7,1.45-10.15,4.35-13.34
					s6.89-5.41,11.96-6.67c5.08-1.25,10.95-1.88,17.62-1.88h5.22v-1.45c0-1.64-0.34-3.29-1.01-4.93c-0.68-1.64-1.79-3.02-3.33-4.13
					c-1.55-1.11-3.72-1.67-6.53-1.67c-3.96,0-6.91,0.39-8.84,1.16c-1.94,0.78-3.43,1.57-4.5,2.39c-1.06,0.82-2.27,1.23-3.63,1.23
					c-2.42,0-4.28-1.21-5.58-3.63c-1.3-2.42-1.96-4.93-1.96-7.54c0-2.32,1.33-4.35,3.99-6.09c2.66-1.74,5.9-3.09,9.71-4.06
					c3.82-0.97,7.52-1.45,11.09-1.45c7.93,0,14.31,1.35,19.14,4.06c4.83,2.71,8.36,6.21,10.58,10.51c2.22,4.3,3.33,8.92,3.33,13.85
					v34.51c0,1.93-1.04,3.58-3.12,4.93c-2.08,1.35-4.71,2.03-7.9,2.03c-2.8,0-5.17-0.67-7.1-2.03c-1.93-1.35-2.9-3-2.9-4.93v-3.19
					c-2.61,3-5.65,5.68-9.13,8.05C594.09,328.33,589.79,329.52,584.66,329.52z M594.38,313.13c1.55,0,3.14-0.6,4.79-1.81
					c1.64-1.21,3.07-2.83,4.28-4.86c1.21-2.03,1.81-4.25,1.81-6.67v-0.58h-0.58c-2.71,0-5.29,0.17-7.76,0.51
					c-2.46,0.34-4.45,1.07-5.94,2.18c-1.5,1.11-2.25,2.83-2.25,5.15c0,2.13,0.53,3.67,1.6,4.64
					C591.38,312.65,592.73,313.13,594.38,313.13z"/>
				<path class="st0" d="M651.36,359.53c-3.19,0-5.82-0.72-7.9-2.17c-2.08-1.45-3.12-3.04-3.12-4.79v-86.71
					c0-2.03,1.04-3.67,3.12-4.93c2.08-1.25,4.61-1.88,7.61-1.88c3,0,5.46,0.63,7.4,1.88c1.93,1.26,2.9,2.9,2.9,4.93v3.33
					c1.64-2.8,4.18-5.34,7.61-7.61c3.43-2.27,7.42-3.41,11.96-3.41c4.93,0,9.35,1.38,13.27,4.13c3.92,2.75,7.01,6.43,9.28,11.02
					c2.27,4.59,3.41,9.69,3.41,15.3v10.15c0,5.32-1.16,10.32-3.48,15.01c-2.32,4.69-5.39,8.48-9.21,11.38
					c-3.82,2.9-8,4.35-12.54,4.35c-4.25,0-8.12-1.18-11.6-3.55c-3.48-2.37-5.9-5.05-7.25-8.05v34.65c0,1.74-1.11,3.33-3.33,4.79
					C657.26,358.81,654.55,359.53,651.36,359.53z M673.69,309.94c1.93,0,3.7-0.53,5.29-1.59c1.6-1.06,2.9-2.46,3.92-4.21
					s1.52-3.53,1.52-5.37v-10.15c0-1.84-0.48-3.58-1.45-5.22c-0.97-1.64-2.3-3-3.99-4.06c-1.69-1.06-3.55-1.59-5.58-1.59
					c-1.74,0-3.41,0.43-5,1.3c-1.6,0.87-2.92,2.1-3.99,3.7c-1.06,1.6-1.6,3.55-1.6,5.87v12.04c0,0.77,0.46,1.91,1.38,3.41
					c0.92,1.5,2.2,2.85,3.84,4.06C669.68,309.34,671.56,309.94,673.69,309.94z"/>
				<path class="st0" d="M728.65,359.53c-3.19,0-5.83-0.72-7.9-2.17c-2.08-1.45-3.12-3.04-3.12-4.79v-86.71
					c0-2.03,1.04-3.67,3.12-4.93c2.08-1.25,4.61-1.88,7.61-1.88c3,0,5.46,0.63,7.39,1.88c1.93,1.26,2.9,2.9,2.9,4.93v3.33
					c1.64-2.8,4.18-5.34,7.61-7.61c3.43-2.27,7.42-3.41,11.96-3.41c4.93,0,9.35,1.38,13.27,4.13c3.92,2.75,7.01,6.43,9.28,11.02
					c2.27,4.59,3.41,9.69,3.41,15.3v10.15c0,5.32-1.16,10.32-3.48,15.01c-2.32,4.69-5.39,8.48-9.21,11.38
					c-3.82,2.9-8,4.35-12.54,4.35c-4.25,0-8.12-1.18-11.6-3.55c-3.48-2.37-5.9-5.05-7.25-8.05v34.65c0,1.74-1.11,3.33-3.33,4.79
					C734.54,358.81,731.84,359.53,728.65,359.53z M750.97,309.94c1.93,0,3.7-0.53,5.29-1.59c1.59-1.06,2.9-2.46,3.92-4.21
					s1.52-3.53,1.52-5.37v-10.15c0-1.84-0.48-3.58-1.45-5.22c-0.97-1.64-2.3-3-3.99-4.06c-1.69-1.06-3.55-1.59-5.58-1.59
					c-1.74,0-3.41,0.43-5,1.3s-2.92,2.1-3.99,3.7c-1.07,1.6-1.6,3.55-1.6,5.87v12.04c0,0.77,0.46,1.91,1.38,3.41
					c0.92,1.5,2.2,2.85,3.84,4.06C746.96,309.34,748.85,309.94,750.97,309.94z"/>
				<path class="st0" d="M798.68,359.53c-2.9,0-5.34-0.53-7.32-1.59c-1.98-1.06-2.97-3.72-2.97-7.97c0-2.51,0.41-4.69,1.23-6.53
					c0.82-1.84,2.25-2.75,4.28-2.75c1.35,0,3.14-0.12,5.36-0.36c2.22-0.24,4.52-0.92,6.89-2.03c2.37-1.11,4.35-2.95,5.95-5.51
					c1.59-2.56,2.39-6.11,2.39-10.66l-25.38-50.46c-0.49-0.97-0.73-1.93-0.73-2.9c0-1.93,0.87-3.72,2.61-5.37
					c1.74-1.64,3.79-2.95,6.16-3.92c2.37-0.96,4.52-1.45,6.45-1.45c1.35,0,2.61,0.27,3.77,0.8c1.16,0.53,1.98,1.47,2.47,2.83
					l16.38,39.29l12.04-39.29c0.48-1.35,1.28-2.29,2.39-2.83c1.11-0.53,2.25-0.8,3.41-0.8c1.74,0,3.84,0.51,6.31,1.52
					c2.46,1.02,4.62,2.35,6.45,3.99c1.83,1.64,2.75,3.53,2.75,5.65c0,0.97-0.19,1.79-0.58,2.47l-20.59,51.33
					c-1.84,4.54-3.58,8.99-5.22,13.34c-1.65,4.35-3.75,8.26-6.31,11.74c-2.56,3.48-6.07,6.26-10.51,8.34
					C811.92,358.49,806.02,359.53,798.68,359.53z"/>
				<path class="st1" d="M877.85,328.07c-3,0-5.39-0.67-7.18-2.03c-1.79-1.35-2.68-2.95-2.68-4.79v-92.22
					c0-2.32,1.04-4.06,3.12-5.22c2.08-1.16,4.33-1.74,6.74-1.74h29.72c4.83,0,9.47,0.73,13.92,2.18c4.45,1.45,8.07,4.04,10.88,7.76
					c2.8,3.72,4.21,9.02,4.21,15.88c0,5.9-1.09,10.75-3.26,14.57c-2.17,3.82-5.2,6.55-9.06,8.19c3,1.07,5.61,2.49,7.83,4.28
					c2.22,1.79,3.96,4.18,5.22,7.18c1.26,3,1.89,6.91,1.89,11.75v3.04c0,7.64-1.28,13.73-3.84,18.27
					c-2.56,4.54-6.04,7.83-10.44,9.86c-4.4,2.03-9.35,3.04-14.86,3.04H877.85z M890.46,261.95h15.23c2.8,0,4.88-1.06,6.23-3.19
					c1.35-2.13,2.03-4.4,2.03-6.82c0-1.74-0.31-3.38-0.94-4.93c-0.63-1.54-1.55-2.8-2.75-3.77c-1.21-0.96-2.73-1.45-4.57-1.45
					h-15.23V261.95z M890.46,308.35h14.5c3.67,0,6.53-1.06,8.56-3.19c2.03-2.13,3.04-5.51,3.04-10.15v-2.32
					c0-4.93-1.02-8.38-3.04-10.37c-2.03-1.98-4.88-2.97-8.56-2.97h-14.5V308.35z"/>
				<path class="st1" d="M960.79,245.71c-3.29,0-6.09-1.06-8.41-3.19c-2.32-2.13-3.48-4.54-3.48-7.25c0-2.8,1.16-5.22,3.48-7.25
					c2.32-2.03,5.12-3.04,8.41-3.04c3.29,0,6.06,1.01,8.34,3.04c2.27,2.03,3.41,4.45,3.41,7.25c0,2.71-1.14,5.13-3.41,7.25
					C966.85,244.64,964.07,245.71,960.79,245.71z M960.79,328.07c-3.29,0-5.97-0.72-8.05-2.17c-2.08-1.45-3.12-3.04-3.12-4.79
					v-55.25c0-2.03,1.04-3.67,3.12-4.93c2.08-1.25,4.76-1.88,8.05-1.88c3.09,0,5.75,0.63,7.97,1.88c2.22,1.26,3.33,2.9,3.33,4.93
					v55.25c0,1.74-1.11,3.33-3.33,4.79C966.54,327.34,963.88,328.07,960.79,328.07z"/>
				<path class="st1" d="M996.02,328.07c-3.19,0-5.83-0.72-7.9-2.17c-2.08-1.45-3.12-3.04-3.12-4.79v-55.25
					c0-2.03,1.04-3.67,3.12-4.93c2.08-1.25,4.71-1.88,7.9-1.88c2.8,0,5.17,0.63,7.11,1.88c1.93,1.26,2.9,2.9,2.9,4.93v5.37
					c0.97-2.13,2.34-4.18,4.13-6.16c1.79-1.98,3.82-3.63,6.09-4.93c2.27-1.3,4.62-1.96,7.03-1.96h4.21c2.13,0,3.99,0.97,5.58,2.9
					c1.59,1.94,2.39,4.21,2.39,6.82c0,2.71-0.8,5.03-2.39,6.96c-1.6,1.93-3.46,2.9-5.58,2.9h-4.21c-2.61,0-5.13,0.89-7.54,2.68
					c-2.42,1.79-4.4,4.28-5.94,7.47c-1.55,3.19-2.32,7.01-2.32,11.46v21.75c0,1.74-1.11,3.33-3.33,4.79
					C1001.91,327.34,999.21,328.07,996.02,328.07z"/>
				<path class="st1" d="M1070.26,328.07c-9.19,0-16.22-1.96-21.1-5.87c-4.88-3.92-7.32-10.13-7.32-18.63v-67.71
					c0-2.03,1.21-3.67,3.63-4.93c2.42-1.26,4.93-1.89,7.54-1.89c2.8,0,5.39,0.63,7.76,1.89c2.37,1.26,3.55,2.9,3.55,4.93v23.2h16.38
					c1.83,0,3.21,0.85,4.13,2.54c0.92,1.69,1.38,3.5,1.38,5.44c0,2.03-0.46,3.87-1.38,5.51c-0.92,1.65-2.3,2.47-4.13,2.47h-16.38
					v28.56c0,2.13,0.43,3.6,1.3,4.42c0.87,0.82,2.42,1.23,4.64,1.23h6.23c3.29,0,5.7,0.99,7.25,2.97c1.55,1.98,2.32,4.13,2.32,6.45
					c0,2.42-0.77,4.59-2.32,6.53c-1.55,1.93-3.96,2.9-7.25,2.9H1070.26z"/>
				<path class="st1" d="M1106.22,328.07c-3.29,0-5.97-0.72-8.05-2.17c-2.08-1.45-3.12-3.04-3.12-4.79v-94.68
					c0-2.03,1.04-3.67,3.12-4.93c2.08-1.25,4.76-1.88,8.05-1.88c3.09,0,5.75,0.63,7.97,1.88c2.22,1.26,3.33,2.9,3.33,4.93v42.77
					c1.35-2.8,3.58-5.34,6.67-7.61c3.09-2.27,6.86-3.41,11.31-3.41c4.45,0,8.53,1.38,12.25,4.13c3.72,2.75,6.72,6.43,8.99,11.02
					c2.27,4.59,3.41,9.69,3.41,15.3v32.48c0,2.32-1.19,4.06-3.55,5.22c-2.37,1.16-4.96,1.74-7.76,1.74c-2.61,0-5.13-0.58-7.54-1.74
					c-2.42-1.16-3.63-2.9-3.63-5.22v-32.48c0-1.84-0.48-3.58-1.45-5.22c-0.97-1.64-2.22-3-3.77-4.06c-1.55-1.06-3.29-1.59-5.22-1.59
					c-1.55,0-3.07,0.43-4.57,1.3c-1.5,0.87-2.73,2.1-3.7,3.7c-0.97,1.6-1.45,3.55-1.45,5.87v32.48c0,1.74-1.11,3.33-3.33,4.79
					C1111.97,327.34,1109.31,328.07,1106.22,328.07z"/>
				<path class="st1" d="M1195.25,329.52c-4.45,0-8.6-1.45-12.47-4.35c-3.87-2.9-6.96-6.69-9.28-11.38
					c-2.32-4.69-3.48-9.69-3.48-15.01v-10.15c0-5.61,1.16-10.71,3.48-15.3c2.32-4.59,5.41-8.26,9.28-11.02
					c3.87-2.76,8.17-4.13,12.9-4.13c4.45,0,8.24,1.14,11.38,3.41c3.14,2.27,5.49,4.81,7.03,7.61v-42.77c0-2.03,1.11-3.67,3.33-4.93
					c2.22-1.25,4.93-1.88,8.12-1.88c3.19,0,5.82,0.63,7.9,1.88c2.08,1.26,3.12,2.9,3.12,4.93v94.68c0,1.74-1.04,3.33-3.12,4.79
					c-2.08,1.45-4.71,2.17-7.9,2.17c-2.71,0-5.05-0.72-7.03-2.17c-1.98-1.45-2.97-3.04-2.97-4.79v-3.19c-1.45,3-4.04,5.68-7.76,8.05
					C1204.07,328.33,1199.89,329.52,1195.25,329.52z M1202.93,309.94c2.13,0,4.01-0.6,5.66-1.81c1.64-1.21,2.97-2.56,3.99-4.06
					c1.02-1.5,1.52-2.63,1.52-3.41v-12.04c0-2.32-0.56-4.28-1.67-5.87c-1.11-1.59-2.51-2.83-4.21-3.7c-1.69-0.87-3.41-1.3-5.15-1.3
					c-1.93,0-3.72,0.53-5.37,1.59c-1.64,1.06-2.92,2.42-3.84,4.06c-0.92,1.65-1.38,3.38-1.38,5.22v10.15c0,1.84,0.46,3.63,1.38,5.37
					c0.92,1.74,2.18,3.14,3.77,4.21C1199.23,309.41,1201,309.94,1202.93,309.94z"/>
				<path class="st1" d="M1264.41,329.52c-5.03,0-9.38-1.57-13.05-4.71c-3.67-3.14-5.51-8-5.51-14.57c0-5.7,1.45-10.15,4.35-13.34
					s6.89-5.41,11.96-6.67c5.07-1.25,10.95-1.88,17.62-1.88h5.22v-1.45c0-1.64-0.34-3.29-1.01-4.93c-0.68-1.64-1.79-3.02-3.33-4.13
					c-1.55-1.11-3.72-1.67-6.53-1.67c-3.96,0-6.91,0.39-8.84,1.16c-1.93,0.78-3.43,1.57-4.5,2.39c-1.06,0.82-2.27,1.23-3.63,1.23
					c-2.42,0-4.28-1.21-5.58-3.63c-1.31-2.42-1.96-4.93-1.96-7.54c0-2.32,1.33-4.35,3.99-6.09c2.66-1.74,5.9-3.09,9.71-4.06
					c3.82-0.97,7.52-1.45,11.09-1.45c7.93,0,14.31,1.35,19.14,4.06c4.83,2.71,8.36,6.21,10.58,10.51c2.22,4.3,3.33,8.92,3.33,13.85
					v34.51c0,1.93-1.04,3.58-3.12,4.93c-2.08,1.35-4.71,2.03-7.9,2.03c-2.8,0-5.17-0.67-7.1-2.03c-1.94-1.35-2.9-3-2.9-4.93v-3.19
					c-2.61,3-5.66,5.68-9.13,8.05C1273.83,328.33,1269.53,329.52,1264.41,329.52z M1274.12,313.13c1.54,0,3.14-0.6,4.79-1.81
					c1.64-1.21,3.07-2.83,4.28-4.86c1.21-2.03,1.81-4.25,1.81-6.67v-0.58h-0.58c-2.71,0-5.29,0.17-7.76,0.51
					c-2.47,0.34-4.45,1.07-5.95,2.18c-1.5,1.11-2.25,2.83-2.25,5.15c0,2.13,0.53,3.67,1.59,4.64
					C1271.13,312.65,1272.48,313.13,1274.12,313.13z"/>
				<path class="st1" d="M1323.86,359.53c-2.9,0-5.34-0.53-7.32-1.59c-1.98-1.06-2.97-3.72-2.97-7.97c0-2.51,0.41-4.69,1.23-6.53
					c0.82-1.84,2.25-2.75,4.28-2.75c1.35,0,3.14-0.12,5.36-0.36c2.22-0.24,4.52-0.92,6.89-2.03c2.37-1.11,4.35-2.95,5.95-5.51
					c1.59-2.56,2.39-6.11,2.39-10.66l-25.38-50.46c-0.49-0.97-0.73-1.93-0.73-2.9c0-1.93,0.87-3.72,2.61-5.37
					c1.74-1.64,3.79-2.95,6.16-3.92c2.37-0.96,4.52-1.45,6.45-1.45c1.35,0,2.61,0.27,3.77,0.8c1.16,0.53,1.98,1.47,2.47,2.83
					l16.38,39.29l12.04-39.29c0.48-1.35,1.28-2.29,2.39-2.83c1.11-0.53,2.25-0.8,3.41-0.8c1.74,0,3.84,0.51,6.31,1.52
					c2.46,1.02,4.62,2.35,6.45,3.99c1.83,1.64,2.75,3.53,2.75,5.65c0,0.97-0.19,1.79-0.58,2.47l-20.59,51.33
					c-1.84,4.54-3.58,8.99-5.22,13.34c-1.65,4.35-3.75,8.26-6.31,11.74c-2.56,3.48-6.07,6.26-10.51,8.34
					C1337.1,358.49,1331.2,359.53,1323.86,359.53z"/>
			</g>
		</g>
	</g>
</g>
<g class="st2">
	<circle class="st3" cx="441.94" cy="236.79" r="88.5"/>
	<circle class="st3" cx="595.19" cy="236.79" r="88.5"/>
	<circle class="st3" cx="748.44" cy="236.79" r="88.5"/>
	<circle class="st3" cx="901.69" cy="236.79" r="88.5"/>
	<circle class="st3" cx="1054.94" cy="236.79" r="88.5"/>
</g>
<g>
	<g>
		<g>
			<path class="st0" d="M125.23,440c-15.52,0-29.34-9.87-34.37-24.55L39.78,266.51h341.66l-51.08,148.95
				c-5.04,14.68-18.85,24.55-34.37,24.55H125.23z"/>
			<path class="st4" d="M370.25,274.5L322.8,412.86c-3.93,11.45-14.7,19.15-26.81,19.15H125.23c-12.11,0-22.88-7.7-26.81-19.15
				L50.97,274.5H370.25 M392.63,258.51H28.58l54.71,159.54c6.14,17.92,22.99,29.95,41.94,29.95h170.76
				c18.94,0,35.79-12.03,41.94-29.95L392.63,258.51L392.63,258.51z"/>
		</g>
		<g>
			<g>
				<line class="st5" x1="134.48" y1="336.91" x2="155.34" y2="400.86"/>
			</g>
			<g>
				<line class="st5" x1="286.74" y1="336.91" x2="265.88" y2="400.86"/>
			</g>
			<line class="st5" x1="210.61" y1="336.64" x2="210.61" y2="401.13"/>
		</g>
	</g>
	<g>
		<g>
			<path class="st6" d="M292.23,297.69c-9.43,0-18.54-3.4-25.66-9.57c-4.22-3.66-9.61-5.67-15.19-5.67
				c-5.57,0-10.97,2.02-15.19,5.67c-7.11,6.17-16.23,9.57-25.66,9.57c-9.43,0-18.54-3.4-25.66-9.57c-4.22-3.66-9.61-5.67-15.18-5.67
				c-5.57,0-10.97,2.02-15.18,5.67c-7.11,6.17-16.23,9.57-25.66,9.57s-18.54-3.4-25.66-9.57c-4.22-3.66-9.62-5.68-15.2-5.68
				c-5.57,0-10.95,2.01-15.16,5.67c-5.97,5.18-13.26,8.41-21.08,9.32c-1.51,0.18-3.04,0.26-4.54,0.26
				c-10.69,0-21.1-4.55-28.56-12.49c-7.51-7.99-11.27-18.36-10.59-29.18c1.27-20.2,18.95-36.64,39.43-36.64l0.92,0.01
				c6.9,0,13.41-2.54,18.35-7.14c40.49-37.82,93.32-58.64,148.75-58.64c55.71,0,108.74,21.01,149.31,59.17
				c4.05,3.81,9.02,6.2,14.38,6.93c18.55,2.5,32.77,17.88,33.82,36.58c0.61,10.78-3.19,21.09-10.69,29.02
				c-7.45,7.88-17.83,12.39-28.47,12.39c0,0,0,0,0,0c-1.5,0-3.03-0.09-4.53-0.26c-7.82-0.91-15.1-4.13-21.07-9.3
				c-4.22-3.66-9.62-5.68-15.19-5.68c-5.57,0-10.97,2.01-15.18,5.67C310.77,294.29,301.66,297.69,292.23,297.69z"/>
			<path class="st7" d="M215.51,161.6c53.67,0,104.75,20.24,143.83,56.99c5.27,4.96,11.77,8.08,18.79,9.02
				c14.76,1.99,26.07,14.23,26.91,29.11c0.48,8.56-2.54,16.76-8.52,23.08c-5.94,6.29-14.2,9.89-22.66,9.89
				c-1.19,0-2.41-0.07-3.61-0.21c-6.21-0.72-12.01-3.28-16.76-7.4c-5.68-4.92-12.93-7.63-20.43-7.63c-7.5,0-14.75,2.71-20.42,7.63
				c-5.66,4.91-12.91,7.61-20.42,7.61c-7.51,0-14.76-2.7-20.42-7.61c-5.67-4.92-12.93-7.63-20.42-7.63c-7.5,0-14.75,2.71-20.42,7.63
				c-5.66,4.91-12.91,7.61-20.42,7.61c-7.51,0-14.76-2.7-20.42-7.61c-5.67-4.92-12.93-7.63-20.42-7.63c-7.5,0-14.75,2.71-20.42,7.63
				c-5.66,4.91-12.91,7.62-20.42,7.62c-7.51,0-14.76-2.7-20.42-7.61c-5.68-4.92-12.93-7.64-20.43-7.64c-7.5,0-14.74,2.71-20.4,7.63
				c-4.75,4.12-10.55,6.69-16.76,7.41c-1.2,0.14-2.42,0.21-3.62,0.21c-8.49,0-16.78-3.63-22.73-9.97
				c-5.98-6.37-8.98-14.61-8.44-23.21c1.01-16.07,15.12-29.14,31.45-29.14c0.14,0,0.28,0,0.42,0c0.17,0,0.33,0,0.5,0
				c8.93,0,17.39-3.3,23.8-9.29C111.23,181.66,162.12,161.6,215.51,161.6 M215.51,145.61c-59.61,0-113.82,23.08-154.2,60.79
				c-3.49,3.26-8.12,4.99-12.89,4.99c-0.09,0-0.18,0-0.27,0c-0.21,0-0.43,0-0.64,0c-24.28,0-45.84,19.05-47.41,44.13
				c-1.71,27.34,20.44,50.17,47.13,50.17c1.8,0,3.63-0.1,5.47-0.32c9.66-1.13,18.42-5.17,25.39-11.22c2.85-2.47,6.38-3.71,9.92-3.71
				c3.55,0,7.1,1.24,9.96,3.72c8.28,7.18,19.08,11.53,30.9,11.53c11.82,0,22.62-4.35,30.9-11.53c2.86-2.48,6.4-3.72,9.95-3.72
				s7.09,1.24,9.95,3.72c8.28,7.18,19.08,11.53,30.9,11.53c11.82,0,22.62-4.35,30.9-11.53c2.86-2.48,6.4-3.72,9.95-3.72
				c3.54,0,7.09,1.24,9.95,3.72c8.28,7.18,19.08,11.53,30.9,11.53c11.82,0,22.62-4.35,30.9-11.53c2.86-2.48,6.4-3.72,9.94-3.72
				c3.55,0,7.09,1.24,9.95,3.72c6.97,6.05,15.74,10.08,25.39,11.2c1.83,0.21,3.65,0.32,5.45,0.32c26.57,0,48.67-22.63,47.14-49.86
				c-1.27-22.68-18.56-41.07-40.74-44.06c-3.74-0.5-7.22-2.24-9.97-4.83C329.86,168.91,275.41,145.61,215.51,145.61L215.51,145.61z"
				/>
		</g>
		<path class="st8" d="M88.48,230.26c3.99-3.76,21.25-20.32,45.84-31.45"/>
	</g>
	<g>
		<path class="st9" d="M203.5,4.01l-34.94,60.52c-18.62,32.25,4.65,72.56,41.89,72.56h0c37.24,0,60.51-40.31,41.89-72.56L217.4,4.01
			C214.31-1.34,206.58-1.34,203.5,4.01z"/>
		<path class="st10" d="M204.72,72.15l-12.8,22.17c-8.23,14.26,2.06,32.09,18.53,32.09h0c16.47,0,26.76-17.83,18.53-32.09
			l-12.8-22.17C213.63,67.75,207.26,67.75,204.72,72.15z"/>
	</g>
</g>
</svg>
